<!DOCTYPE svg PUBLIC "-//W3C//DTD SVG 1.1//EN" "http://www.w3.org/Graphics/SVG/1.1/DTD/svg11.dtd">
<!-- Uploaded to: SVG Repo, www.svgrepo.com, Transformed by: SVG Repo Mixer Tools -->
<svg fill="#510094" version="1.1" id="Capa_1" xmlns="http://www.w3.org/2000/svg" xmlns:xlink="http://www.w3.org/1999/xlink" width="800px" height="800px" viewBox="0 0 80 80" xml:space="preserve" stroke="#510094">
<g id="SVGRepo_bgCarrier" stroke-width="0"/>
<g id="SVGRepo_tracerCarrier" stroke-linecap="round" stroke-linejoin="round"/>
<g id="SVGRepo_iconCarrier"> <g> <g> <rect x="20.898" y="37.018" width="23.833" height="2.992"/> <rect x="20.898" y="45.518" width="6.167" height="5.166"/> <polygon points="49.089,37.516 49.203,39.878 51.564,39.989 60.562,30.992 58.087,28.518 "/> <path d="M40,0C17.908,0,0,17.909,0,40c0,22.092,17.908,40,40,40c22.092,0,40-17.908,40-40C80,17.909,62.091,0,40,0z M62.684,31.699l-7.154,7.155v18.371c0,0.553-0.447,1-1,1H13.235c-0.553,0-1-0.447-1-1V24.689c0-0.553,0.447-1,1-1h41.294 c0.553,0,1,0.447,1,1v3.559l1.852-1.852c0.391-0.391,1.023-0.391,1.414,0l3.891,3.889c0.188,0.188,0.293,0.441,0.293,0.707 C62.977,31.257,62.872,31.512,62.684,31.699z"/> <path d="M47.248,40.882l-0.178-3.713c-0.014-0.281,0.094-0.556,0.293-0.755l3.769-3.77v-1.189h-34.5v22.287h34.5v-11.77 l-2.932-0.14C47.684,41.809,47.271,41.396,47.248,40.882z M29.065,51.684c0,0.554-0.447,1-1,1h-8.167c-0.553,0-1-0.446-1-1v-7.166 c0-0.553,0.447-1,1-1h8.167c0.553,0,1,0.447,1,1V51.684z M45.73,50.184h-14c-0.553,0-1-0.446-1-1c0-0.553,0.447-1,1-1h14 c0.554,0,1,0.447,1,1C46.73,49.737,46.284,50.184,45.73,50.184z M45.73,45.518h-14c-0.553,0-1-0.446-1-1c0-0.553,0.447-1,1-1h14 c0.554,0,1,0.447,1,1C46.73,45.071,46.284,45.518,45.73,45.518z M46.73,41.01c0,0.553-0.446,1-1,1H19.898c-0.553,0-1-0.447-1-1 v-4.992c0-0.553,0.447-1,1-1H45.73c0.554,0,1,0.447,1,1V41.01z"/> </g> </g> </g>
</svg>